<svg xmlns="http://www.w3.org/2000/svg" viewBox="0 0 512 512" width="100%" height="100%">
  <defs>
    <linearGradient id="bg-grad" x1="0%" y1="0%" x2="100%" y2="100%">
      <stop offset="0%" stop-color="#0f172a" />
      <stop offset="100%" stop-color="#020617" />
    </linearGradient>
    <linearGradient id="primary-grad" x1="0%" y1="0%" x2="100%" y2="100%">
      <stop offset="0%" stop-color="#06b6d4" />
      <stop offset="50%" stop-color="#3b82f6" />
      <stop offset="100%" stop-color="#10b981" />
    </linearGradient>
  </defs>
  <!-- Background -->
  <rect width="512" height="512" rx="112" fill="url(#bg-grad)" />
  <!-- Cyber Shield -->
  <path d="M256,64 L400,112 L400,256 C400,352 336,416 256,448 C176,416 112,352 112,256 L112,112 Z" fill="none" stroke="url(#primary-grad)" stroke-width="18" stroke-linecap="round" stroke-linejoin="round" />
  <!-- Outer Glow border -->
  <path d="M256,76 L386,119 L386,256 C386,340 331,398 256,428 C181,398 126,340 126,256 L126,119 Z" fill="none" stroke="#22d3ee" stroke-width="2" stroke-opacity="0.4" />
  <!-- Inner cyber circuits -->
  <circle cx="256" cy="192" r="48" fill="none" stroke="#06b6d4" stroke-width="8" />
  <circle cx="256" cy="192" r="16" fill="#10b981" />
  <path d="M256,240 L256,336" fill="none" stroke="url(#primary-grad)" stroke-width="10" stroke-linecap="round" />
  <path d="M208,288 L304,288" fill="none" stroke="url(#primary-grad)" stroke-width="10" stroke-linecap="round" />
  <circle cx="208" cy="288" r="8" fill="#06b6d4" />
  <circle cx="304" cy="288" r="8" fill="#06b6d4" />
  <circle cx="256" cy="336" r="12" fill="#10b981" />
  <path d="M192,192 L144,192" fill="none" stroke="#06b6d4" stroke-width="6" stroke-linecap="round" />
  <path d="M320,192 L368,192" fill="none" stroke="#06b6d4" stroke-width="6" stroke-linecap="round" />
  <!-- Terminal Prompt Symbol & Hacker theme -->
  <path d="M180,360 L210,380 L180,400" fill="none" stroke="#10b981" stroke-width="6" stroke-linecap="round" stroke-linejoin="round" />
  <line x1="225" y1="400" x2="255" y2="400" stroke="#06b6d4" stroke-width="6" stroke-linecap="round" />
</svg>
